<svg xmlns="http://www.w3.org/2000/svg" viewBox="0 0 320 760">
  <defs>
    <linearGradient id="pcb" x1="0" y1="0" x2="0" y2="1">
      <stop offset="0%" stop-color="#17384f"/>
      <stop offset="55%" stop-color="#113048"/>
      <stop offset="100%" stop-color="#0c2337"/>
    </linearGradient>
    <linearGradient id="metal" x1="0" y1="0" x2="0" y2="1">
      <stop offset="0%" stop-color="#e5edf5"/>
      <stop offset="100%" stop-color="#9aa9b8"/>
    </linearGradient>
    <filter id="shadow" x="-20%" y="-20%" width="140%" height="140%">
      <feDropShadow dx="0" dy="10" stdDeviation="10" flood-color="#020617" flood-opacity="0.28"/>
    </filter>
  </defs>
  <rect x="30" y="20" width="260" height="720" rx="26" fill="url(#pcb)" stroke="#28506d" stroke-width="4" filter="url(#shadow)"/>
  <circle cx="58" cy="48" r="7" fill="#071521" stroke="#7f97ab" stroke-width="2"/>
  <circle cx="262" cy="48" r="7" fill="#071521" stroke="#7f97ab" stroke-width="2"/>
  <circle cx="58" cy="712" r="7" fill="#071521" stroke="#7f97ab" stroke-width="2"/>
  <circle cx="262" cy="712" r="7" fill="#071521" stroke="#7f97ab" stroke-width="2"/>

  <rect x="116" y="6" width="88" height="38" rx="12" fill="url(#metal)" stroke="#7f8c98" stroke-width="2"/>
  <rect x="136" y="14" width="48" height="16" rx="5" fill="#52697d"/>

  <rect x="104" y="82" width="112" height="170" rx="10" fill="#d7dde2" stroke="#7a8792" stroke-width="2"/>
  <rect x="116" y="94" width="88" height="120" rx="6" fill="#8a939b" opacity="0.88"/>
  <text x="160" y="234" text-anchor="middle" font-family="Inter,Arial,sans-serif" font-size="18" fill="#243343">ESP-WROOM-32</text>

  <rect x="86" y="286" width="148" height="240" rx="12" fill="#13283b" stroke="#3f627d" stroke-width="2"/>
  <rect x="104" y="312" width="112" height="44" rx="6" fill="#0a1520" stroke="#48647a" stroke-width="1.5"/>
  <rect x="102" y="370" width="32" height="40" rx="6" fill="#1f364b" stroke="#57738a" stroke-width="1.5"/>
  <rect x="186" y="370" width="32" height="40" rx="6" fill="#1f364b" stroke="#57738a" stroke-width="1.5"/>
  <rect x="146" y="428" width="28" height="28" rx="6" fill="#304b60" stroke="#7f95a8" stroke-width="1.5"/>
  <circle cx="118" cy="390" r="7" fill="#9ca9b5"/>
  <circle cx="202" cy="390" r="7" fill="#9ca9b5"/>
  <circle cx="160" cy="442" r="7" fill="#9ca9b5"/>
  <text x="160" y="555" text-anchor="middle" font-family="Inter,Arial,sans-serif" font-size="16" fill="#9fb5c6">ESP32 DevKit V1</text>
  <text x="160" y="578" text-anchor="middle" font-family="Inter,Arial,sans-serif" font-size="13" fill="#6f89a0">38-pin common retail board</text>

  <g fill="#d5b06f" stroke="#87653f" stroke-width="1.2">
    <rect x="42" y="88" width="16" height="22" rx="2"/>
    <rect x="42" y="124" width="16" height="22" rx="2"/>
    <rect x="42" y="160" width="16" height="22" rx="2"/>
    <rect x="42" y="196" width="16" height="22" rx="2"/>
    <rect x="42" y="232" width="16" height="22" rx="2"/>
    <rect x="42" y="268" width="16" height="22" rx="2"/>
    <rect x="42" y="304" width="16" height="22" rx="2"/>
    <rect x="42" y="340" width="16" height="22" rx="2"/>
    <rect x="42" y="376" width="16" height="22" rx="2"/>
    <rect x="42" y="412" width="16" height="22" rx="2"/>
    <rect x="42" y="448" width="16" height="22" rx="2"/>
    <rect x="42" y="484" width="16" height="22" rx="2"/>
    <rect x="42" y="520" width="16" height="22" rx="2"/>
    <rect x="42" y="556" width="16" height="22" rx="2"/>
    <rect x="42" y="592" width="16" height="22" rx="2"/>
    <rect x="42" y="628" width="16" height="22" rx="2"/>
    <rect x="42" y="664" width="16" height="22" rx="2"/>
    <rect x="42" y="700" width="16" height="22" rx="2"/>
    <rect x="262" y="88" width="16" height="22" rx="2"/>
    <rect x="262" y="124" width="16" height="22" rx="2"/>
    <rect x="262" y="160" width="16" height="22" rx="2"/>
    <rect x="262" y="196" width="16" height="22" rx="2"/>
    <rect x="262" y="232" width="16" height="22" rx="2"/>
    <rect x="262" y="268" width="16" height="22" rx="2"/>
    <rect x="262" y="304" width="16" height="22" rx="2"/>
    <rect x="262" y="340" width="16" height="22" rx="2"/>
    <rect x="262" y="376" width="16" height="22" rx="2"/>
    <rect x="262" y="412" width="16" height="22" rx="2"/>
    <rect x="262" y="448" width="16" height="22" rx="2"/>
    <rect x="262" y="484" width="16" height="22" rx="2"/>
    <rect x="262" y="520" width="16" height="22" rx="2"/>
    <rect x="262" y="556" width="16" height="22" rx="2"/>
    <rect x="262" y="592" width="16" height="22" rx="2"/>
    <rect x="262" y="628" width="16" height="22" rx="2"/>
    <rect x="262" y="664" width="16" height="22" rx="2"/>
    <rect x="262" y="700" width="16" height="22" rx="2"/>
  </g>

  <g stroke="#86a3b8" stroke-width="1" opacity="0.55">
    <line x1="74" y1="90" x2="246" y2="90"/>
    <line x1="74" y1="126" x2="246" y2="126"/>
    <line x1="74" y1="162" x2="246" y2="162"/>
    <line x1="74" y1="198" x2="246" y2="198"/>
    <line x1="74" y1="234" x2="246" y2="234"/>
    <line x1="74" y1="270" x2="246" y2="270"/>
    <line x1="74" y1="306" x2="246" y2="306"/>
    <line x1="74" y1="342" x2="246" y2="342"/>
    <line x1="74" y1="378" x2="246" y2="378"/>
    <line x1="74" y1="414" x2="246" y2="414"/>
    <line x1="74" y1="450" x2="246" y2="450"/>
    <line x1="74" y1="486" x2="246" y2="486"/>
    <line x1="74" y1="522" x2="246" y2="522"/>
    <line x1="74" y1="558" x2="246" y2="558"/>
    <line x1="74" y1="594" x2="246" y2="594"/>
    <line x1="74" y1="630" x2="246" y2="630"/>
    <line x1="74" y1="666" x2="246" y2="666"/>
    <line x1="74" y1="702" x2="246" y2="702"/>
  </g>
</svg>
